<svg xmlns="http://www.w3.org/2000/svg" width="320" height="180" viewBox="0 0 320 180" preserveAspectRatio="xMidYMid slice">
  <defs>
    <linearGradient id="bg-1xmhe" gradientTransform="rotate(140)">
      <stop offset="0%" stop-color="hsl(38 55% 12.6%)"/>
      <stop offset="100%" stop-color="hsl(24 56% 21.5%)"/>
    </linearGradient>
    <pattern id="pat-1lsd7" x="0" y="0" width="19" height="19" patternUnits="userSpaceOnUse" patternTransform="rotate(90)">
  <line x1="0" y1="9.5" x2="19" y2="9.5" stroke="white" stroke-opacity="0.14" stroke-width="1"/>
</pattern>
  </defs>
  <rect width="320" height="180" fill="url(#bg-1xmhe)"/>
  <rect width="320" height="180" fill="url(#pat-1lsd7)"/>
  <circle cx="79" cy="149" r="8" fill="none" stroke="white" stroke-opacity="0.25" stroke-width="0.8"/><g transform="translate(12 112)" stroke="white" stroke-opacity="0.45" stroke-linecap="round" stroke-width="1.2">
  <line x1="-4" y1="0" x2="4" y2="0"/><line x1="0" y1="-4" x2="0" y2="4"/>
</g><g transform="translate(226 68)" stroke="#fde68a" stroke-opacity="0.55" stroke-linecap="round" stroke-width="1.4">
  <line x1="-3" y1="0" x2="3" y2="0"/><line x1="0" y1="-3" x2="0" y2="3"/>
</g><g transform="translate(50 106)" stroke="white" stroke-opacity="0.45" stroke-linecap="round" stroke-width="1.2">
  <line x1="-4" y1="0" x2="4" y2="0"/><line x1="0" y1="-4" x2="0" y2="4"/>
</g><circle cx="275" cy="35" r="6" fill="none" stroke="white" stroke-opacity="0.25" stroke-width="0.8"/><circle cx="51" cy="70" r="2" fill="#fde68a" fill-opacity="0.7"/>
  
  <circle cx="180" cy="87" r="38" fill="white" fill-opacity="0.07" stroke="white" stroke-opacity="0.25" stroke-width="1.4"/>
  <circle cx="180" cy="87" r="25" fill="#fde68a" fill-opacity="0.55"/>
  <circle cx="180" cy="87" r="13" fill="white" fill-opacity="0.85"/>
  <rect x="0" y="170" width="320" height="10" fill="black" fill-opacity="0.3"/>
  <rect x="135" y="173" width="68" height="4" rx="2" fill="#fde68a" fill-opacity="0.75"/>
</svg>