<svg xmlns="http://www.w3.org/2000/svg" width="320" height="180" viewBox="0 0 320 180" preserveAspectRatio="xMidYMid slice">
  <defs>
    <linearGradient id="bg-1elsw" gradientTransform="rotate(146)">
      <stop offset="0%" stop-color="hsl(43 66% 12.2%)"/>
      <stop offset="100%" stop-color="hsl(13 68% 20.7%)"/>
    </linearGradient>
    <pattern id="pat-ca6u8" x="0" y="0" width="33" height="33" patternUnits="userSpaceOnUse" patternTransform="rotate(0)">
  <line x1="0" y1="16.5" x2="33" y2="16.5" stroke="white" stroke-opacity="0.16" stroke-width="1"/>
</pattern>
  </defs>
  <rect width="320" height="180" fill="url(#bg-1elsw)"/>
  <rect width="320" height="180" fill="url(#pat-ca6u8)"/>
  <circle cx="243" cy="115" r="4" fill="none" stroke="white" stroke-opacity="0.25" stroke-width="0.8"/><g transform="translate(23 28)" stroke="white" stroke-opacity="0.45" stroke-linecap="round" stroke-width="1.2">
  <line x1="-4" y1="0" x2="4" y2="0"/><line x1="0" y1="-4" x2="0" y2="4"/>
</g><g transform="translate(204 54)" stroke="#fde68a" stroke-opacity="0.55" stroke-linecap="round" stroke-width="1.4">
  <line x1="-3" y1="0" x2="3" y2="0"/><line x1="0" y1="-3" x2="0" y2="3"/>
</g><circle cx="185" cy="115" r="2" fill="#fde68a" fill-opacity="0.7"/><g transform="translate(169 42)" stroke="white" stroke-opacity="0.45" stroke-linecap="round" stroke-width="1.2">
  <line x1="-4" y1="0" x2="4" y2="0"/><line x1="0" y1="-4" x2="0" y2="4"/>
</g><g transform="translate(113 91)" stroke="white" stroke-opacity="0.45" stroke-linecap="round" stroke-width="1.2">
  <line x1="-4" y1="0" x2="4" y2="0"/><line x1="0" y1="-4" x2="0" y2="4"/>
</g>
  
  <circle cx="153" cy="82" r="41" fill="white" fill-opacity="0.07" stroke="white" stroke-opacity="0.25" stroke-width="1.4"/>
  <circle cx="153" cy="82" r="23" fill="#fde68a" fill-opacity="0.55"/>
  <circle cx="153" cy="82" r="13" fill="white" fill-opacity="0.85"/>
  <rect x="0" y="170" width="320" height="10" fill="black" fill-opacity="0.3"/>
  <rect x="76" y="173" width="82" height="4" rx="2" fill="#fde68a" fill-opacity="0.75"/>
</svg>