<svg xmlns="http://www.w3.org/2000/svg" width="320" height="180" viewBox="0 0 320 180" preserveAspectRatio="xMidYMid slice">
  <defs>
    <linearGradient id="bg-1b5xs" gradientTransform="rotate(102)">
      <stop offset="0%" stop-color="hsl(49 72% 11.1%)"/>
      <stop offset="100%" stop-color="hsl(35 59% 24.0%)"/>
    </linearGradient>
    <pattern id="pat-qok0w" x="0" y="0" width="28" height="28" patternUnits="userSpaceOnUse">
  <circle cx="14" cy="14" r="9.333333333333334" fill="none" stroke="white" stroke-opacity="0.09" stroke-width="0.8"/>
</pattern>
  </defs>
  <rect width="320" height="180" fill="url(#bg-1b5xs)"/>
  <rect width="320" height="180" fill="url(#pat-qok0w)"/>
  <g transform="translate(157 52)" stroke="white" stroke-opacity="0.45" stroke-linecap="round" stroke-width="1.2">
  <line x1="-4" y1="0" x2="4" y2="0"/><line x1="0" y1="-4" x2="0" y2="4"/>
</g><g transform="translate(292 32)" stroke="white" stroke-opacity="0.45" stroke-linecap="round" stroke-width="1.2">
  <line x1="-4" y1="0" x2="4" y2="0"/><line x1="0" y1="-4" x2="0" y2="4"/>
</g><g transform="translate(193 89)" stroke="white" stroke-opacity="0.45" stroke-linecap="round" stroke-width="1.2">
  <line x1="-4" y1="0" x2="4" y2="0"/><line x1="0" y1="-4" x2="0" y2="4"/>
</g><g transform="translate(92 110)" stroke="#facc15" stroke-opacity="0.55" stroke-linecap="round" stroke-width="1.4">
  <line x1="-3" y1="0" x2="3" y2="0"/><line x1="0" y1="-3" x2="0" y2="3"/>
</g><g transform="translate(51 74)" stroke="#facc15" stroke-opacity="0.55" stroke-linecap="round" stroke-width="1.4">
  <line x1="-3" y1="0" x2="3" y2="0"/><line x1="0" y1="-3" x2="0" y2="3"/>
</g>
  
  <polygon points="186.0,98.0 162.0,139.6 114.0,139.6 90.0,98.0 114.0,56.4 162.0,56.4" fill="white" fill-opacity="0.07" stroke="white" stroke-opacity="0.25" stroke-width="1.4"/>
  <circle cx="138" cy="98" r="33" fill="#facc15" fill-opacity="0.5"/>
  <circle cx="138" cy="98" r="16" fill="white" fill-opacity="0.85"/>
  <rect x="0" y="170" width="320" height="10" fill="black" fill-opacity="0.3"/>
  <rect x="74" y="173" width="139" height="4" rx="2" fill="#facc15" fill-opacity="0.75"/>
</svg>