<svg xmlns="http://www.w3.org/2000/svg" width="320" height="180" viewBox="0 0 320 180" preserveAspectRatio="xMidYMid slice">
  <defs>
    <linearGradient id="bg-13cf6" gradientTransform="rotate(108)">
      <stop offset="0%" stop-color="hsl(247 76% 7.6%)"/>
      <stop offset="100%" stop-color="hsl(283 59% 20.3%)"/>
    </linearGradient>
    <pattern id="pat-1n0il" x="0" y="0" width="25" height="25" patternUnits="userSpaceOnUse" patternTransform="rotate(30)">
  <line x1="0" y1="12.5" x2="25" y2="12.5" stroke="white" stroke-opacity="0.11" stroke-width="1"/>
</pattern>
  </defs>
  <rect width="320" height="180" fill="url(#bg-13cf6)"/>
  <rect width="320" height="180" fill="url(#pat-1n0il)"/>
  <g transform="translate(61 43)" stroke="white" stroke-opacity="0.45" stroke-linecap="round" stroke-width="1.2">
  <line x1="-4" y1="0" x2="4" y2="0"/><line x1="0" y1="-4" x2="0" y2="4"/>
</g><g transform="translate(74 88)" stroke="#60a5fa" stroke-opacity="0.55" stroke-linecap="round" stroke-width="1.4">
  <line x1="-3" y1="0" x2="3" y2="0"/><line x1="0" y1="-3" x2="0" y2="3"/>
</g><circle cx="55" cy="80" r="2" fill="#60a5fa" fill-opacity="0.7"/><g transform="translate(10 47)" stroke="white" stroke-opacity="0.45" stroke-linecap="round" stroke-width="1.2">
  <line x1="-4" y1="0" x2="4" y2="0"/><line x1="0" y1="-4" x2="0" y2="4"/>
</g><circle cx="204" cy="32" r="2" fill="#60a5fa" fill-opacity="0.7"/><circle cx="212" cy="100" r="2" fill="#60a5fa" fill-opacity="0.7"/>
  
  <rect x="117" y="24" width="98" height="98" rx="8.82" fill="white" fill-opacity="0.07" stroke="white" stroke-opacity="0.25" stroke-width="1.4"/>
  <circle cx="166" cy="73" r="34" fill="#60a5fa" fill-opacity="0.5"/>
  <circle cx="166" cy="73" r="14" fill="white" fill-opacity="0.85"/>
  <rect x="0" y="170" width="320" height="10" fill="black" fill-opacity="0.3"/>
  <rect x="88" y="173" width="102" height="4" rx="2" fill="#60a5fa" fill-opacity="0.75"/>
</svg>