<svg xmlns="http://www.w3.org/2000/svg" width="320" height="180" viewBox="0 0 320 180" preserveAspectRatio="xMidYMid slice">
  <defs>
    <linearGradient id="bg-13jyi" gradientTransform="rotate(129)">
      <stop offset="0%" stop-color="hsl(247 69% 8.6%)"/>
      <stop offset="100%" stop-color="hsl(275 63% 22.3%)"/>
    </linearGradient>
    <pattern id="pat-5cex9" x="0" y="0" width="24" height="24" patternUnits="userSpaceOnUse">
  <circle cx="12" cy="12" r="8" fill="none" stroke="white" stroke-opacity="0.16" stroke-width="0.8"/>
</pattern>
  </defs>
  <rect width="320" height="180" fill="url(#bg-13jyi)"/>
  <rect width="320" height="180" fill="url(#pat-5cex9)"/>
  <g transform="translate(273 23)" stroke="#60a5fa" stroke-opacity="0.55" stroke-linecap="round" stroke-width="1.4">
  <line x1="-3" y1="0" x2="3" y2="0"/><line x1="0" y1="-3" x2="0" y2="3"/>
</g><g transform="translate(227 38)" stroke="white" stroke-opacity="0.45" stroke-linecap="round" stroke-width="1.2">
  <line x1="-4" y1="0" x2="4" y2="0"/><line x1="0" y1="-4" x2="0" y2="4"/>
</g><circle cx="284" cy="66" r="2" fill="#60a5fa" fill-opacity="0.7"/><circle cx="113" cy="113" r="2" fill="#60a5fa" fill-opacity="0.7"/><circle cx="206" cy="98" r="8" fill="none" stroke="white" stroke-opacity="0.25" stroke-width="0.8"/><g transform="translate(108 36)" stroke="#60a5fa" stroke-opacity="0.55" stroke-linecap="round" stroke-width="1.4">
  <line x1="-3" y1="0" x2="3" y2="0"/><line x1="0" y1="-3" x2="0" y2="3"/>
</g>
  
  <rect x="94" y="42" width="86" height="86" rx="7.739999999999999" fill="white" fill-opacity="0.07" stroke="white" stroke-opacity="0.25" stroke-width="1.4"/>
  <circle cx="137" cy="85" r="28" fill="#60a5fa" fill-opacity="0.5"/>
  <circle cx="137" cy="85" r="14" fill="white" fill-opacity="0.85"/>
  <rect x="0" y="170" width="320" height="10" fill="black" fill-opacity="0.3"/>
  <rect x="139" y="173" width="139" height="4" rx="2" fill="#60a5fa" fill-opacity="0.75"/>
</svg>