<svg xmlns="http://www.w3.org/2000/svg" width="320" height="180" viewBox="0 0 320 180" preserveAspectRatio="xMidYMid slice">
  <defs>
    <linearGradient id="bg-1jwb7" gradientTransform="rotate(113)">
      <stop offset="0%" stop-color="hsl(56 70% 7.4%)"/>
      <stop offset="100%" stop-color="hsl(29 63% 17.4%)"/>
    </linearGradient>
    <pattern id="pat-14w1e" x="0" y="0" width="19" height="19" patternUnits="userSpaceOnUse">
  <line x1="9.5" y1="2" x2="9.5" y2="17" stroke="white" stroke-opacity="0.09" stroke-width="0.8"/>
  <line x1="2" y1="9.5" x2="17" y2="9.5" stroke="white" stroke-opacity="0.09" stroke-width="0.8"/>
</pattern>
  </defs>
  <rect width="320" height="180" fill="url(#bg-1jwb7)"/>
  <rect width="320" height="180" fill="url(#pat-14w1e)"/>
  <circle cx="310" cy="37" r="2" fill="#facc15" fill-opacity="0.7"/><circle cx="296" cy="17" r="2" fill="#facc15" fill-opacity="0.7"/><circle cx="168" cy="67" r="6" fill="none" stroke="white" stroke-opacity="0.25" stroke-width="0.8"/><g transform="translate(133 69)" stroke="#facc15" stroke-opacity="0.55" stroke-linecap="round" stroke-width="1.4">
  <line x1="-3" y1="0" x2="3" y2="0"/><line x1="0" y1="-3" x2="0" y2="3"/>
</g><g transform="translate(173 134)" stroke="#facc15" stroke-opacity="0.55" stroke-linecap="round" stroke-width="1.4">
  <line x1="-3" y1="0" x2="3" y2="0"/><line x1="0" y1="-3" x2="0" y2="3"/>
</g>
  
  <polygon points="205.0,99.0 180.5,141.4 131.5,141.4 107.0,99.0 131.5,56.6 180.5,56.6" fill="white" fill-opacity="0.07" stroke="white" stroke-opacity="0.25" stroke-width="1.4"/>
  <circle cx="156" cy="99" r="29" fill="#facc15" fill-opacity="0.5"/>
  <circle cx="156" cy="99" r="18" fill="white" fill-opacity="0.85"/>
  <rect x="0" y="170" width="320" height="10" fill="black" fill-opacity="0.3"/>
  <rect x="70" y="173" width="138" height="4" rx="2" fill="#facc15" fill-opacity="0.75"/>
</svg>