<svg xmlns="http://www.w3.org/2000/svg" width="320" height="180" viewBox="0 0 320 180" preserveAspectRatio="xMidYMid slice">
  <defs>
    <linearGradient id="bg-1hxs5" gradientTransform="rotate(153)">
      <stop offset="0%" stop-color="hsl(323 69% 9.9%)"/>
      <stop offset="100%" stop-color="hsl(273 45% 17.3%)"/>
    </linearGradient>
    <pattern id="pat-130t4" x="0" y="0" width="22" height="22" patternUnits="userSpaceOnUse">
  <line x1="11" y1="2" x2="11" y2="20" stroke="white" stroke-opacity="0.12" stroke-width="0.8"/>
  <line x1="2" y1="11" x2="20" y2="11" stroke="white" stroke-opacity="0.12" stroke-width="0.8"/>
</pattern>
  </defs>
  <rect width="320" height="180" fill="url(#bg-1hxs5)"/>
  <rect width="320" height="180" fill="url(#pat-130t4)"/>
  <g transform="translate(285 107)" stroke="#f472b6" stroke-opacity="0.55" stroke-linecap="round" stroke-width="1.4">
  <line x1="-3" y1="0" x2="3" y2="0"/><line x1="0" y1="-3" x2="0" y2="3"/>
</g><g transform="translate(215 64)" stroke="#f472b6" stroke-opacity="0.55" stroke-linecap="round" stroke-width="1.4">
  <line x1="-3" y1="0" x2="3" y2="0"/><line x1="0" y1="-3" x2="0" y2="3"/>
</g><g transform="translate(8 86)" stroke="#f472b6" stroke-opacity="0.55" stroke-linecap="round" stroke-width="1.4">
  <line x1="-3" y1="0" x2="3" y2="0"/><line x1="0" y1="-3" x2="0" y2="3"/>
</g><g transform="translate(272 150)" stroke="white" stroke-opacity="0.45" stroke-linecap="round" stroke-width="1.2">
  <line x1="-4" y1="0" x2="4" y2="0"/><line x1="0" y1="-4" x2="0" y2="4"/>
</g><circle cx="87" cy="24" r="2" fill="#f472b6" fill-opacity="0.7"/><circle cx="147" cy="25" r="2" fill="#f472b6" fill-opacity="0.7"/>
  
  <rect x="143.35" y="43.15" width="53.300000000000004" height="69.7" rx="6" fill="white" fill-opacity="0.08" stroke="white" stroke-opacity="0.25" stroke-width="1.4"/>
  <circle cx="170" cy="78" r="28" fill="#f472b6" fill-opacity="0.5"/>
  <circle cx="170" cy="78" r="12" fill="white" fill-opacity="0.85"/>
  <rect x="0" y="170" width="320" height="10" fill="black" fill-opacity="0.3"/>
  <rect x="63" y="173" width="64" height="4" rx="2" fill="#f472b6" fill-opacity="0.75"/>
</svg>