<svg xmlns="http://www.w3.org/2000/svg" width="320" height="180" viewBox="0 0 320 180" preserveAspectRatio="xMidYMid slice">
  <defs>
    <linearGradient id="bg-rejdi" gradientTransform="rotate(147)">
      <stop offset="0%" stop-color="hsl(337 59% 11.7%)"/>
      <stop offset="100%" stop-color="hsl(275 50% 21.4%)"/>
    </linearGradient>
    <pattern id="pat-1w4p3" x="0" y="0" width="34" height="34" patternUnits="userSpaceOnUse" patternTransform="rotate(60)">
  <line x1="0" y1="17" x2="34" y2="17" stroke="white" stroke-opacity="0.07" stroke-width="1"/>
</pattern>
  </defs>
  <rect width="320" height="180" fill="url(#bg-rejdi)"/>
  <rect width="320" height="180" fill="url(#pat-1w4p3)"/>
  <g transform="translate(218 40)" stroke="#f472b6" stroke-opacity="0.55" stroke-linecap="round" stroke-width="1.4">
  <line x1="-3" y1="0" x2="3" y2="0"/><line x1="0" y1="-3" x2="0" y2="3"/>
</g><g transform="translate(65 146)" stroke="#f472b6" stroke-opacity="0.55" stroke-linecap="round" stroke-width="1.4">
  <line x1="-3" y1="0" x2="3" y2="0"/><line x1="0" y1="-3" x2="0" y2="3"/>
</g><circle cx="160" cy="50" r="2" fill="#f472b6" fill-opacity="0.7"/><g transform="translate(43 30)" stroke="white" stroke-opacity="0.45" stroke-linecap="round" stroke-width="1.2">
  <line x1="-4" y1="0" x2="4" y2="0"/><line x1="0" y1="-4" x2="0" y2="4"/>
</g>
  
  <rect x="151.4" y="35.6" width="57.2" height="74.8" rx="6" fill="white" fill-opacity="0.08" stroke="white" stroke-opacity="0.25" stroke-width="1.4"/>
  <circle cx="180" cy="73" r="29" fill="#f472b6" fill-opacity="0.5"/>
  <circle cx="180" cy="73" r="17" fill="white" fill-opacity="0.85"/>
  <rect x="0" y="170" width="320" height="10" fill="black" fill-opacity="0.3"/>
  <rect x="137" y="173" width="113" height="4" rx="2" fill="#f472b6" fill-opacity="0.75"/>
</svg>