<svg xmlns="http://www.w3.org/2000/svg" width="320" height="180" viewBox="0 0 320 180" preserveAspectRatio="xMidYMid slice">
  <defs>
    <linearGradient id="bg-1vosp" gradientTransform="rotate(112)">
      <stop offset="0%" stop-color="hsl(238 69% 7.6%)"/>
      <stop offset="100%" stop-color="hsl(288 67% 18.8%)"/>
    </linearGradient>
    <pattern id="pat-1bee9" x="0" y="0" width="24" height="24" patternUnits="userSpaceOnUse">
  <line x1="12" y1="2" x2="12" y2="22" stroke="white" stroke-opacity="0.15" stroke-width="0.8"/>
  <line x1="2" y1="12" x2="22" y2="12" stroke="white" stroke-opacity="0.15" stroke-width="0.8"/>
</pattern>
  </defs>
  <rect width="320" height="180" fill="url(#bg-1vosp)"/>
  <rect width="320" height="180" fill="url(#pat-1bee9)"/>
  <g transform="translate(155 20)" stroke="white" stroke-opacity="0.45" stroke-linecap="round" stroke-width="1.2">
  <line x1="-4" y1="0" x2="4" y2="0"/><line x1="0" y1="-4" x2="0" y2="4"/>
</g><circle cx="262" cy="28" r="9" fill="none" stroke="white" stroke-opacity="0.25" stroke-width="0.8"/><g transform="translate(51 46)" stroke="#60a5fa" stroke-opacity="0.55" stroke-linecap="round" stroke-width="1.4">
  <line x1="-3" y1="0" x2="3" y2="0"/><line x1="0" y1="-3" x2="0" y2="3"/>
</g>
  
  <rect x="118" y="48" width="86" height="86" rx="7.739999999999999" fill="white" fill-opacity="0.07" stroke="white" stroke-opacity="0.25" stroke-width="1.4"/>
  <circle cx="161" cy="91" r="25" fill="#60a5fa" fill-opacity="0.5"/>
  <circle cx="161" cy="91" r="15" fill="white" fill-opacity="0.85"/>
  <rect x="0" y="170" width="320" height="10" fill="black" fill-opacity="0.3"/>
  <rect x="136" y="173" width="78" height="4" rx="2" fill="#60a5fa" fill-opacity="0.75"/>
</svg>