<svg xmlns="http://www.w3.org/2000/svg" width="320" height="180" viewBox="0 0 320 180" preserveAspectRatio="xMidYMid slice">
  <defs>
    <linearGradient id="bg-1vi5y" gradientTransform="rotate(103)">
      <stop offset="0%" stop-color="hsl(358 54% 8.7%)"/>
      <stop offset="100%" stop-color="hsl(30 74% 18.0%)"/>
    </linearGradient>
    <pattern id="pat-3ubns" x="0" y="0" width="18" height="18" patternUnits="userSpaceOnUse">
  <line x1="9" y1="2" x2="9" y2="16" stroke="white" stroke-opacity="0.11" stroke-width="0.8"/>
  <line x1="2" y1="9" x2="16" y2="9" stroke="white" stroke-opacity="0.11" stroke-width="0.8"/>
</pattern>
  </defs>
  <rect width="320" height="180" fill="url(#bg-1vi5y)"/>
  <rect width="320" height="180" fill="url(#pat-3ubns)"/>
  <circle cx="153" cy="36" r="5" fill="none" stroke="white" stroke-opacity="0.25" stroke-width="0.8"/><g transform="translate(117 78)" stroke="#fbbf24" stroke-opacity="0.55" stroke-linecap="round" stroke-width="1.4">
  <line x1="-3" y1="0" x2="3" y2="0"/><line x1="0" y1="-3" x2="0" y2="3"/>
</g><g transform="translate(129 44)" stroke="white" stroke-opacity="0.45" stroke-linecap="round" stroke-width="1.2">
  <line x1="-4" y1="0" x2="4" y2="0"/><line x1="0" y1="-4" x2="0" y2="4"/>
</g><g transform="translate(147 106)" stroke="white" stroke-opacity="0.45" stroke-linecap="round" stroke-width="1.2">
  <line x1="-4" y1="0" x2="4" y2="0"/><line x1="0" y1="-4" x2="0" y2="4"/>
</g>
  
  <circle cx="153" cy="76" r="39" fill="white" fill-opacity="0.07" stroke="white" stroke-opacity="0.25" stroke-width="1.4"/>
  <circle cx="153" cy="76" r="24" fill="#fbbf24" fill-opacity="0.55"/>
  <circle cx="153" cy="76" r="14" fill="white" fill-opacity="0.85"/>
  <rect x="0" y="170" width="320" height="10" fill="black" fill-opacity="0.3"/>
  <rect x="92" y="173" width="77" height="4" rx="2" fill="#fbbf24" fill-opacity="0.75"/>
</svg>