<svg xmlns="http://www.w3.org/2000/svg" width="320" height="180" viewBox="0 0 320 180">
  <defs>
    <linearGradient id="hi-sci-bg" x1="0" y1="0" x2="1" y2="1">
      <stop offset="0%" stop-color="#0a1f12"/>
      <stop offset="60%" stop-color="#1b4332"/>
      <stop offset="100%" stop-color="#2d6a4f"/>
    </linearGradient>
    <radialGradient id="hi-sci-glow" cx="0.5" cy="0.5" r="0.5">
      <stop offset="0%" stop-color="#ffd166" stop-opacity="0.6"/>
      <stop offset="100%" stop-color="#ffd166" stop-opacity="0"/>
    </radialGradient>
    <pattern id="hi-sci-dots" x="0" y="0" width="24" height="24" patternUnits="userSpaceOnUse">
      <circle cx="12" cy="12" r="1" fill="white" fill-opacity="0.12"/>
    </pattern>
  </defs>
  <rect width="320" height="180" fill="url(#hi-sci-bg)"/>
  <rect width="320" height="180" fill="url(#hi-sci-dots)"/>
  <circle cx="160" cy="80" r="80" fill="url(#hi-sci-glow)"/>
  <circle cx="160" cy="80" r="48" fill="white" fill-opacity="0.06" stroke="white" stroke-opacity="0.25" stroke-width="1.5"/>
  <circle cx="160" cy="80" r="32" fill="#ffd166" fill-opacity="0.55"/>
  <circle cx="160" cy="80" r="18" fill="#1b4332"/>
  <text x="160" y="86" font-family="serif" font-size="20" font-weight="bold" fill="#ffd166" text-anchor="middle">7</text>
  <g stroke="#ffd166" stroke-opacity="0.5" stroke-linecap="round" stroke-width="1.5" fill="none">
    <line x1="24" y1="24" x2="34" y2="24"/><line x1="29" y1="19" x2="29" y2="29"/>
    <line x1="286" y1="24" x2="296" y2="24"/><line x1="291" y1="19" x2="291" y2="29"/>
    <line x1="24" y1="156" x2="34" y2="156"/><line x1="29" y1="151" x2="29" y2="161"/>
    <line x1="286" y1="156" x2="296" y2="156"/><line x1="291" y1="151" x2="291" y2="161"/>
  </g>
  <g fill="white" fill-opacity="0.18">
    <circle cx="60" cy="60" r="3"/>
    <circle cx="260" cy="60" r="3"/>
    <circle cx="60" cy="120" r="3"/>
    <circle cx="260" cy="120" r="3"/>
  </g>
  <rect x="0" y="160" width="320" height="20" fill="black" fill-opacity="0.3"/>
  <rect x="100" y="167" width="120" height="6" rx="3" fill="#ffd166" fill-opacity="0.7"/>
</svg>
