<svg xmlns="http://www.w3.org/2000/svg" width="320" height="180" viewBox="0 0 320 180" preserveAspectRatio="xMidYMid slice">
  <defs>
    <linearGradient id="bg-78jan" gradientTransform="rotate(158)">
      <stop offset="0%" stop-color="hsl(243 58% 12.1%)"/>
      <stop offset="100%" stop-color="hsl(287 69% 23.7%)"/>
    </linearGradient>
    <pattern id="pat-dd630" x="0" y="0" width="30" height="30" patternUnits="userSpaceOnUse" patternTransform="rotate(135)">
  <line x1="0" y1="15" x2="30" y2="15" stroke="white" stroke-opacity="0.07" stroke-width="1"/>
</pattern>
  </defs>
  <rect width="320" height="180" fill="url(#bg-78jan)"/>
  <rect width="320" height="180" fill="url(#pat-dd630)"/>
  <g transform="translate(206 64)" stroke="#60a5fa" stroke-opacity="0.55" stroke-linecap="round" stroke-width="1.4">
  <line x1="-3" y1="0" x2="3" y2="0"/><line x1="0" y1="-3" x2="0" y2="3"/>
</g><circle cx="203" cy="75" r="8" fill="none" stroke="white" stroke-opacity="0.25" stroke-width="0.8"/><g transform="translate(256 49)" stroke="#60a5fa" stroke-opacity="0.55" stroke-linecap="round" stroke-width="1.4">
  <line x1="-3" y1="0" x2="3" y2="0"/><line x1="0" y1="-3" x2="0" y2="3"/>
</g><g transform="translate(143 108)" stroke="#60a5fa" stroke-opacity="0.55" stroke-linecap="round" stroke-width="1.4">
  <line x1="-3" y1="0" x2="3" y2="0"/><line x1="0" y1="-3" x2="0" y2="3"/>
</g><circle cx="80" cy="107" r="2" fill="#60a5fa" fill-opacity="0.7"/>
  
  <rect x="128" y="50" width="84" height="84" rx="7.56" fill="white" fill-opacity="0.07" stroke="white" stroke-opacity="0.25" stroke-width="1.4"/>
  <circle cx="170" cy="92" r="23" fill="#60a5fa" fill-opacity="0.5"/>
  <circle cx="170" cy="92" r="14" fill="white" fill-opacity="0.85"/>
  <rect x="0" y="170" width="320" height="10" fill="black" fill-opacity="0.3"/>
  <rect x="83" y="173" width="135" height="4" rx="2" fill="#60a5fa" fill-opacity="0.75"/>
</svg>