<svg xmlns="http://www.w3.org/2000/svg" width="320" height="180" viewBox="0 0 320 180" preserveAspectRatio="xMidYMid slice">
  <defs>
    <linearGradient id="bg-15hq6" gradientTransform="rotate(155)">
      <stop offset="0%" stop-color="hsl(358 78% 8.2%)"/>
      <stop offset="100%" stop-color="hsl(26 49% 17.0%)"/>
    </linearGradient>
    <pattern id="pat-1gt53" x="0" y="0" width="24" height="24" patternUnits="userSpaceOnUse" patternTransform="rotate(135)">
  <line x1="0" y1="12" x2="24" y2="12" stroke="white" stroke-opacity="0.12" stroke-width="1"/>
</pattern>
  </defs>
  <rect width="320" height="180" fill="url(#bg-15hq6)"/>
  <rect width="320" height="180" fill="url(#pat-1gt53)"/>
  <circle cx="97" cy="11" r="4" fill="none" stroke="white" stroke-opacity="0.25" stroke-width="0.8"/><g transform="translate(27 152)" stroke="#fbbf24" stroke-opacity="0.55" stroke-linecap="round" stroke-width="1.4">
  <line x1="-3" y1="0" x2="3" y2="0"/><line x1="0" y1="-3" x2="0" y2="3"/>
</g><circle cx="125" cy="80" r="9" fill="none" stroke="white" stroke-opacity="0.25" stroke-width="0.8"/><circle cx="115" cy="85" r="2" fill="#fbbf24" fill-opacity="0.7"/><circle cx="9" cy="104" r="8" fill="none" stroke="white" stroke-opacity="0.25" stroke-width="0.8"/><g transform="translate(218 64)" stroke="white" stroke-opacity="0.45" stroke-linecap="round" stroke-width="1.2">
  <line x1="-4" y1="0" x2="4" y2="0"/><line x1="0" y1="-4" x2="0" y2="4"/>
</g>
  
  <circle cx="141" cy="87" r="40" fill="white" fill-opacity="0.07" stroke="white" stroke-opacity="0.25" stroke-width="1.4"/>
  <circle cx="141" cy="87" r="27" fill="#fbbf24" fill-opacity="0.55"/>
  <circle cx="141" cy="87" r="15" fill="white" fill-opacity="0.85"/>
  <rect x="0" y="170" width="320" height="10" fill="black" fill-opacity="0.3"/>
  <rect x="110" y="173" width="90" height="4" rx="2" fill="#fbbf24" fill-opacity="0.75"/>
</svg>