<svg width="320" height="180" viewBox="0 0 320 180" xmlns="http://www.w3.org/2000/svg">
  <defs>
    <linearGradient id="bgGradient" x1="0" y1="0" x2="1" y2="1">
      <stop offset="0%" style="stop-color:#064635;" />
      <stop offset="100%" style="stop-color:#013220;" />
    </linearGradient>
    <radialGradient id="badgeGradient" cx="50%" cy="50%" r="50%">
      <stop offset="0%" style="stop-color:rgba(255,215,0,0.8)" />
      <stop offset="100%" style="stop-color:rgba(0,0,0,0.0)" />
    </radialGradient>
  </defs>
  <rect width="320" height="180" fill="url(#bgGradient)" />
  <circle cx="160" cy="90" r="40" fill="url(#badgeGradient)" />
  <circle cx="160" cy="90" r="34" fill="none" stroke="#ccc" stroke-width="2" />
  <path d="M160 50 L165 72 L187 72 L170 85 L175 107 L160 92 L145 107 L150 85 L133 72 L155 72 Z" fill="rgba(255, 215, 0, 0.8)" />
  <line x1="0" y1="178" x2="320" y2="178" stroke="#ccc" stroke-width="2" />
  <path d="M2,2 L12,12 M2,12 L12,2" stroke="#bbb" stroke-width="1.5" />
  <path d="M308,2 L318,12 M308,12 L318,2" stroke="#bbb" stroke-width="1.5" />
  <path d="M2,168 L12,178 M2,178 L12,168" stroke="#bbb" stroke-width="1.5" />
  <path d="M308,168 L318,178 M308,178 L318,168" stroke="#bbb" stroke-width="1.5" />
  <circle cx="10" cy="90" r="2" fill="rgba(255, 215, 0, 0.8)" />
  <circle cx="310" cy="90" r="2" fill="rgba(255, 215, 0, 0.8)" />
</svg>