<svg xmlns="http://www.w3.org/2000/svg" width="320" height="180" viewBox="0 0 320 180" preserveAspectRatio="xMidYMid slice">
  <defs>
    <linearGradient id="bg-1wmoj" gradientTransform="rotate(154)">
      <stop offset="0%" stop-color="hsl(21 78% 8.8%)"/>
      <stop offset="100%" stop-color="hsl(12 60% 18.3%)"/>
    </linearGradient>
    <pattern id="pat-1ykck" x="0" y="0" width="20" height="20" patternUnits="userSpaceOnUse">
  <circle cx="10" cy="10" r="6.666666666666667" fill="none" stroke="white" stroke-opacity="0.11" stroke-width="0.8"/>
</pattern>
  </defs>
  <rect width="320" height="180" fill="url(#bg-1wmoj)"/>
  <rect width="320" height="180" fill="url(#pat-1ykck)"/>
  <g transform="translate(281 87)" stroke="white" stroke-opacity="0.45" stroke-linecap="round" stroke-width="1.2">
  <line x1="-4" y1="0" x2="4" y2="0"/><line x1="0" y1="-4" x2="0" y2="4"/>
</g><g transform="translate(300 60)" stroke="#fb923c" stroke-opacity="0.55" stroke-linecap="round" stroke-width="1.4">
  <line x1="-3" y1="0" x2="3" y2="0"/><line x1="0" y1="-3" x2="0" y2="3"/>
</g><g transform="translate(10 88)" stroke="#fb923c" stroke-opacity="0.55" stroke-linecap="round" stroke-width="1.4">
  <line x1="-3" y1="0" x2="3" y2="0"/><line x1="0" y1="-3" x2="0" y2="3"/>
</g><g transform="translate(227 25)" stroke="white" stroke-opacity="0.45" stroke-linecap="round" stroke-width="1.2">
  <line x1="-4" y1="0" x2="4" y2="0"/><line x1="0" y1="-4" x2="0" y2="4"/>
</g><g transform="translate(162 18)" stroke="white" stroke-opacity="0.45" stroke-linecap="round" stroke-width="1.2">
  <line x1="-4" y1="0" x2="4" y2="0"/><line x1="0" y1="-4" x2="0" y2="4"/>
</g><circle cx="305" cy="112" r="2" fill="#fb923c" fill-opacity="0.7"/>
  
  <rect x="102" y="26" width="92" height="92" rx="8.28" fill="white" fill-opacity="0.07" stroke="white" stroke-opacity="0.25" stroke-width="1.4"/>
  <circle cx="148" cy="72" r="27" fill="#fb923c" fill-opacity="0.5"/>
  <circle cx="148" cy="72" r="14" fill="white" fill-opacity="0.85"/>
  <rect x="0" y="170" width="320" height="10" fill="black" fill-opacity="0.3"/>
  <rect x="66" y="173" width="80" height="4" rx="2" fill="#fb923c" fill-opacity="0.75"/>
</svg>