<svg xmlns="http://www.w3.org/2000/svg" width="320" height="180" viewBox="0 0 320 180" preserveAspectRatio="xMidYMid slice">
  <defs>
    <linearGradient id="bg-llidk" gradientTransform="rotate(130)">
      <stop offset="0%" stop-color="hsl(346 62% 12.0%)"/>
      <stop offset="100%" stop-color="hsl(26 70% 16.0%)"/>
    </linearGradient>
    <pattern id="pat-rfza7" x="0" y="0" width="33" height="33" patternUnits="userSpaceOnUse">
  <line x1="16.5" y1="2" x2="16.5" y2="31" stroke="white" stroke-opacity="0.09" stroke-width="0.8"/>
  <line x1="2" y1="16.5" x2="31" y2="16.5" stroke="white" stroke-opacity="0.09" stroke-width="0.8"/>
</pattern>
  </defs>
  <rect width="320" height="180" fill="url(#bg-llidk)"/>
  <rect width="320" height="180" fill="url(#pat-rfza7)"/>
  <circle cx="110" cy="76" r="8" fill="none" stroke="white" stroke-opacity="0.25" stroke-width="0.8"/><g transform="translate(154 34)" stroke="#fbbf24" stroke-opacity="0.55" stroke-linecap="round" stroke-width="1.4">
  <line x1="-3" y1="0" x2="3" y2="0"/><line x1="0" y1="-3" x2="0" y2="3"/>
</g><g transform="translate(147 131)" stroke="#fbbf24" stroke-opacity="0.55" stroke-linecap="round" stroke-width="1.4">
  <line x1="-3" y1="0" x2="3" y2="0"/><line x1="0" y1="-3" x2="0" y2="3"/>
</g><circle cx="168" cy="135" r="2" fill="#fbbf24" fill-opacity="0.7"/>
  
  <circle cx="142" cy="104" r="39" fill="white" fill-opacity="0.07" stroke="white" stroke-opacity="0.25" stroke-width="1.4"/>
  <circle cx="142" cy="104" r="24" fill="#fbbf24" fill-opacity="0.55"/>
  <circle cx="142" cy="104" r="12" fill="white" fill-opacity="0.85"/>
  <rect x="0" y="170" width="320" height="10" fill="black" fill-opacity="0.3"/>
  <rect x="100" y="173" width="116" height="4" rx="2" fill="#fbbf24" fill-opacity="0.75"/>
</svg>