<svg xmlns="http://www.w3.org/2000/svg" width="320" height="180" viewBox="0 0 320 180" preserveAspectRatio="xMidYMid slice">
  <defs>
    <linearGradient id="bg-xdpam" gradientTransform="rotate(143)">
      <stop offset="0%" stop-color="hsl(41 72% 7.7%)"/>
      <stop offset="100%" stop-color="hsl(35 69% 17.6%)"/>
    </linearGradient>
    <pattern id="pat-lodb9" x="0" y="0" width="20" height="20" patternUnits="userSpaceOnUse">
  <circle cx="10" cy="10" r="6.666666666666667" fill="none" stroke="white" stroke-opacity="0.07" stroke-width="0.8"/>
</pattern>
  </defs>
  <rect width="320" height="180" fill="url(#bg-xdpam)"/>
  <rect width="320" height="180" fill="url(#pat-lodb9)"/>
  <g transform="translate(15 42)" stroke="white" stroke-opacity="0.45" stroke-linecap="round" stroke-width="1.2">
  <line x1="-4" y1="0" x2="4" y2="0"/><line x1="0" y1="-4" x2="0" y2="4"/>
</g><g transform="translate(19 98)" stroke="#facc15" stroke-opacity="0.55" stroke-linecap="round" stroke-width="1.4">
  <line x1="-3" y1="0" x2="3" y2="0"/><line x1="0" y1="-3" x2="0" y2="3"/>
</g><g transform="translate(255 108)" stroke="white" stroke-opacity="0.45" stroke-linecap="round" stroke-width="1.2">
  <line x1="-4" y1="0" x2="4" y2="0"/><line x1="0" y1="-4" x2="0" y2="4"/>
</g><g transform="translate(95 50)" stroke="white" stroke-opacity="0.45" stroke-linecap="round" stroke-width="1.2">
  <line x1="-4" y1="0" x2="4" y2="0"/><line x1="0" y1="-4" x2="0" y2="4"/>
</g><g transform="translate(139 139)" stroke="#facc15" stroke-opacity="0.55" stroke-linecap="round" stroke-width="1.4">
  <line x1="-3" y1="0" x2="3" y2="0"/><line x1="0" y1="-3" x2="0" y2="3"/>
</g>
  
  <polygon points="219.0,74.0 199.0,108.6 159.0,108.6 139.0,74.0 159.0,39.4 199.0,39.4" fill="white" fill-opacity="0.07" stroke="white" stroke-opacity="0.25" stroke-width="1.4"/>
  <circle cx="179" cy="74" r="24" fill="#facc15" fill-opacity="0.5"/>
  <circle cx="179" cy="74" r="11" fill="white" fill-opacity="0.85"/>
  <rect x="0" y="170" width="320" height="10" fill="black" fill-opacity="0.3"/>
  <rect x="79" y="173" width="108" height="4" rx="2" fill="#facc15" fill-opacity="0.75"/>
</svg>