<svg xmlns="http://www.w3.org/2000/svg" width="320" height="180" viewBox="0 0 320 180" preserveAspectRatio="xMidYMid slice">
  <defs>
    <linearGradient id="bg-1s749" gradientTransform="rotate(148)">
      <stop offset="0%" stop-color="hsl(30 66% 8.9%)"/>
      <stop offset="100%" stop-color="hsl(13 71% 17.1%)"/>
    </linearGradient>
    <pattern id="pat-1lfxf" x="0" y="0" width="25" height="25" patternUnits="userSpaceOnUse" patternTransform="rotate(30)">
  <line x1="0" y1="12.5" x2="25" y2="12.5" stroke="white" stroke-opacity="0.09" stroke-width="1"/>
</pattern>
  </defs>
  <rect width="320" height="180" fill="url(#bg-1s749)"/>
  <rect width="320" height="180" fill="url(#pat-1lfxf)"/>
  <g transform="translate(166 132)" stroke="#fde68a" stroke-opacity="0.55" stroke-linecap="round" stroke-width="1.4">
  <line x1="-3" y1="0" x2="3" y2="0"/><line x1="0" y1="-3" x2="0" y2="3"/>
</g><circle cx="232" cy="124" r="2" fill="#fde68a" fill-opacity="0.7"/><circle cx="31" cy="45" r="2" fill="#fde68a" fill-opacity="0.7"/><g transform="translate(94 52)" stroke="white" stroke-opacity="0.45" stroke-linecap="round" stroke-width="1.2">
  <line x1="-4" y1="0" x2="4" y2="0"/><line x1="0" y1="-4" x2="0" y2="4"/>
</g><circle cx="115" cy="62" r="8" fill="none" stroke="white" stroke-opacity="0.25" stroke-width="0.8"/><circle cx="22" cy="27" r="2" fill="#fde68a" fill-opacity="0.7"/>
  
  <circle cx="153" cy="84" r="46" fill="white" fill-opacity="0.07" stroke="white" stroke-opacity="0.25" stroke-width="1.4"/>
  <circle cx="153" cy="84" r="30" fill="#fde68a" fill-opacity="0.55"/>
  <circle cx="153" cy="84" r="14" fill="white" fill-opacity="0.85"/>
  <rect x="0" y="170" width="320" height="10" fill="black" fill-opacity="0.3"/>
  <rect x="87" y="173" width="90" height="4" rx="2" fill="#fde68a" fill-opacity="0.75"/>
</svg>