<svg xmlns="http://www.w3.org/2000/svg" width="320" height="180" viewBox="0 0 320 180" preserveAspectRatio="xMidYMid slice">
  <defs>
    <linearGradient id="bg-eusci" gradientTransform="rotate(147)">
      <stop offset="0%" stop-color="hsl(235 67% 12.2%)"/>
      <stop offset="100%" stop-color="hsl(274 57% 19.9%)"/>
    </linearGradient>
    <pattern id="pat-1s7lv" x="0" y="0" width="28" height="28" patternUnits="userSpaceOnUse" patternTransform="rotate(0)">
  <line x1="0" y1="14" x2="28" y2="14" stroke="white" stroke-opacity="0.16" stroke-width="1"/>
</pattern>
  </defs>
  <rect width="320" height="180" fill="url(#bg-eusci)"/>
  <rect width="320" height="180" fill="url(#pat-1s7lv)"/>
  <circle cx="103" cy="55" r="6" fill="none" stroke="white" stroke-opacity="0.25" stroke-width="0.8"/><circle cx="87" cy="49" r="6" fill="none" stroke="white" stroke-opacity="0.25" stroke-width="0.8"/><g transform="translate(52 51)" stroke="#60a5fa" stroke-opacity="0.55" stroke-linecap="round" stroke-width="1.4">
  <line x1="-3" y1="0" x2="3" y2="0"/><line x1="0" y1="-3" x2="0" y2="3"/>
</g><circle cx="69" cy="105" r="5" fill="none" stroke="white" stroke-opacity="0.25" stroke-width="0.8"/><g transform="translate(21 28)" stroke="white" stroke-opacity="0.45" stroke-linecap="round" stroke-width="1.2">
  <line x1="-4" y1="0" x2="4" y2="0"/><line x1="0" y1="-4" x2="0" y2="4"/>
</g><g transform="translate(171 65)" stroke="white" stroke-opacity="0.45" stroke-linecap="round" stroke-width="1.2">
  <line x1="-4" y1="0" x2="4" y2="0"/><line x1="0" y1="-4" x2="0" y2="4"/>
</g>
  
  <rect x="96" y="30" width="80" height="80" rx="7.199999999999999" fill="white" fill-opacity="0.07" stroke="white" stroke-opacity="0.25" stroke-width="1.4"/>
  <circle cx="136" cy="70" r="27" fill="#60a5fa" fill-opacity="0.5"/>
  <circle cx="136" cy="70" r="13" fill="white" fill-opacity="0.85"/>
  <rect x="0" y="170" width="320" height="10" fill="black" fill-opacity="0.3"/>
  <rect x="110" y="173" width="134" height="4" rx="2" fill="#60a5fa" fill-opacity="0.75"/>
</svg>