<svg xmlns="http://www.w3.org/2000/svg" width="320" height="180" viewBox="0 0 320 180" preserveAspectRatio="xMidYMid slice">
  <defs>
    <linearGradient id="bg-n6a53" gradientTransform="rotate(139)">
      <stop offset="0%" stop-color="hsl(14 80% 7.3%)"/>
      <stop offset="100%" stop-color="hsl(358 74% 16.1%)"/>
    </linearGradient>
    <pattern id="pat-1emu1" x="0" y="0" width="18" height="18" patternUnits="userSpaceOnUse">
  <polygon points="9,2 16,9 9,16 2,9" fill="none" stroke="white" stroke-opacity="0.10" stroke-width="0.8"/>
</pattern>
  </defs>
  <rect width="320" height="180" fill="url(#bg-n6a53)"/>
  <rect width="320" height="180" fill="url(#pat-1emu1)"/>
  <circle cx="100" cy="26" r="2" fill="#fb7185" fill-opacity="0.7"/><circle cx="121" cy="45" r="2" fill="#fb7185" fill-opacity="0.7"/><g transform="translate(112 152)" stroke="white" stroke-opacity="0.45" stroke-linecap="round" stroke-width="1.2">
  <line x1="-4" y1="0" x2="4" y2="0"/><line x1="0" y1="-4" x2="0" y2="4"/>
</g><circle cx="250" cy="27" r="2" fill="#fb7185" fill-opacity="0.7"/><g transform="translate(30 18)" stroke="#fb7185" stroke-opacity="0.55" stroke-linecap="round" stroke-width="1.4">
  <line x1="-3" y1="0" x2="3" y2="0"/><line x1="0" y1="-3" x2="0" y2="3"/>
</g><g transform="translate(218 107)" stroke="#fb7185" stroke-opacity="0.55" stroke-linecap="round" stroke-width="1.4">
  <line x1="-3" y1="0" x2="3" y2="0"/><line x1="0" y1="-3" x2="0" y2="3"/>
</g>
  
  <path d="M 150 129 L 150 105 A 40 40 0 0 1 230 105 L 230 129 Z" fill="white" fill-opacity="0.08" stroke="white" stroke-opacity="0.25" stroke-width="1.4"/>
  <circle cx="190" cy="105" r="24" fill="#fb7185" fill-opacity="0.5"/>
  <circle cx="190" cy="105" r="13" fill="white" fill-opacity="0.85"/>
  <rect x="0" y="170" width="320" height="10" fill="black" fill-opacity="0.3"/>
  <rect x="64" y="173" width="67" height="4" rx="2" fill="#fb7185" fill-opacity="0.75"/>
</svg>