<svg xmlns="http://www.w3.org/2000/svg" width="320" height="180" viewBox="0 0 320 180" preserveAspectRatio="xMidYMid slice">
  <defs>
    <linearGradient id="bg-vbc6g" gradientTransform="rotate(156)">
      <stop offset="0%" stop-color="hsl(13 71% 12.8%)"/>
      <stop offset="100%" stop-color="hsl(353 60% 22.4%)"/>
    </linearGradient>
    <pattern id="pat-guevb" x="0" y="0" width="22" height="22" patternUnits="userSpaceOnUse">
  <polygon points="11,2 20,11 11,20 2,11" fill="none" stroke="white" stroke-opacity="0.06" stroke-width="0.8"/>
</pattern>
  </defs>
  <rect width="320" height="180" fill="url(#bg-vbc6g)"/>
  <rect width="320" height="180" fill="url(#pat-guevb)"/>
  <circle cx="37" cy="128" r="4" fill="none" stroke="white" stroke-opacity="0.25" stroke-width="0.8"/><g transform="translate(276 69)" stroke="white" stroke-opacity="0.45" stroke-linecap="round" stroke-width="1.2">
  <line x1="-4" y1="0" x2="4" y2="0"/><line x1="0" y1="-4" x2="0" y2="4"/>
</g><circle cx="298" cy="98" r="2" fill="#fb7185" fill-opacity="0.7"/><circle cx="27" cy="136" r="5" fill="none" stroke="white" stroke-opacity="0.25" stroke-width="0.8"/><circle cx="289" cy="155" r="8" fill="none" stroke="white" stroke-opacity="0.25" stroke-width="0.8"/>
  
  <path d="M 103 113.8 L 103 85 A 48 48 0 0 1 199 85 L 199 113.8 Z" fill="white" fill-opacity="0.08" stroke="white" stroke-opacity="0.25" stroke-width="1.4"/>
  <circle cx="151" cy="85" r="30" fill="#fb7185" fill-opacity="0.5"/>
  <circle cx="151" cy="85" r="14" fill="white" fill-opacity="0.85"/>
  <rect x="0" y="170" width="320" height="10" fill="black" fill-opacity="0.3"/>
  <rect x="96" y="173" width="124" height="4" rx="2" fill="#fb7185" fill-opacity="0.75"/>
</svg>