<svg xmlns="http://www.w3.org/2000/svg" width="320" height="180" viewBox="0 0 320 180" preserveAspectRatio="xMidYMid slice">
  <defs>
    <linearGradient id="bg-2pw1f" gradientTransform="rotate(163)">
      <stop offset="0%" stop-color="hsl(15 58% 8.2%)"/>
      <stop offset="100%" stop-color="hsl(342 70% 22.0%)"/>
    </linearGradient>
    <pattern id="pat-1f3qf" x="0" y="0" width="23" height="23" patternUnits="userSpaceOnUse">
  <line x1="11.5" y1="2" x2="11.5" y2="21" stroke="white" stroke-opacity="0.12" stroke-width="0.8"/>
  <line x1="2" y1="11.5" x2="21" y2="11.5" stroke="white" stroke-opacity="0.12" stroke-width="0.8"/>
</pattern>
  </defs>
  <rect width="320" height="180" fill="url(#bg-2pw1f)"/>
  <rect width="320" height="180" fill="url(#pat-1f3qf)"/>
  <g transform="translate(282 145)" stroke="#fb7185" stroke-opacity="0.55" stroke-linecap="round" stroke-width="1.4">
  <line x1="-3" y1="0" x2="3" y2="0"/><line x1="0" y1="-3" x2="0" y2="3"/>
</g><g transform="translate(268 124)" stroke="#fb7185" stroke-opacity="0.55" stroke-linecap="round" stroke-width="1.4">
  <line x1="-3" y1="0" x2="3" y2="0"/><line x1="0" y1="-3" x2="0" y2="3"/>
</g><g transform="translate(90 34)" stroke="#fb7185" stroke-opacity="0.55" stroke-linecap="round" stroke-width="1.4">
  <line x1="-3" y1="0" x2="3" y2="0"/><line x1="0" y1="-3" x2="0" y2="3"/>
</g><g transform="translate(84 91)" stroke="#fb7185" stroke-opacity="0.55" stroke-linecap="round" stroke-width="1.4">
  <line x1="-3" y1="0" x2="3" y2="0"/><line x1="0" y1="-3" x2="0" y2="3"/>
</g>
  
  <path d="M 142 133.2 L 142 105 A 47 47 0 0 1 236 105 L 236 133.2 Z" fill="white" fill-opacity="0.08" stroke="white" stroke-opacity="0.25" stroke-width="1.4"/>
  <circle cx="189" cy="105" r="29" fill="#fb7185" fill-opacity="0.5"/>
  <circle cx="189" cy="105" r="19" fill="white" fill-opacity="0.85"/>
  <rect x="0" y="170" width="320" height="10" fill="black" fill-opacity="0.3"/>
  <rect x="110" y="173" width="96" height="4" rx="2" fill="#fb7185" fill-opacity="0.75"/>
</svg>