<svg xmlns="http://www.w3.org/2000/svg" width="320" height="180" viewBox="0 0 320 180" preserveAspectRatio="xMidYMid slice">
  <defs>
    <linearGradient id="bg-vj42j" gradientTransform="rotate(170)">
      <stop offset="0%" stop-color="hsl(17 51% 11.7%)"/>
      <stop offset="100%" stop-color="hsl(359 47% 16.7%)"/>
    </linearGradient>
    <pattern id="pat-tge95" x="0" y="0" width="31" height="31" patternUnits="userSpaceOnUse" patternTransform="rotate(0)">
  <line x1="0" y1="15.5" x2="31" y2="15.5" stroke="white" stroke-opacity="0.08" stroke-width="1"/>
</pattern>
  </defs>
  <rect width="320" height="180" fill="url(#bg-vj42j)"/>
  <rect width="320" height="180" fill="url(#pat-tge95)"/>
  <circle cx="240" cy="85" r="7" fill="none" stroke="white" stroke-opacity="0.25" stroke-width="0.8"/><circle cx="188" cy="82" r="9" fill="none" stroke="white" stroke-opacity="0.25" stroke-width="0.8"/><g transform="translate(246 29)" stroke="#fb7185" stroke-opacity="0.55" stroke-linecap="round" stroke-width="1.4">
  <line x1="-3" y1="0" x2="3" y2="0"/><line x1="0" y1="-3" x2="0" y2="3"/>
</g><circle cx="86" cy="116" r="2" fill="#fb7185" fill-opacity="0.7"/><g transform="translate(89 126)" stroke="#fb7185" stroke-opacity="0.55" stroke-linecap="round" stroke-width="1.4">
  <line x1="-3" y1="0" x2="3" y2="0"/><line x1="0" y1="-3" x2="0" y2="3"/>
</g><circle cx="298" cy="50" r="2" fill="#fb7185" fill-opacity="0.7"/>
  
  <path d="M 143 110.4 L 143 87 A 39 39 0 0 1 221 87 L 221 110.4 Z" fill="white" fill-opacity="0.08" stroke="white" stroke-opacity="0.25" stroke-width="1.4"/>
  <circle cx="182" cy="87" r="27" fill="#fb7185" fill-opacity="0.5"/>
  <circle cx="182" cy="87" r="13" fill="white" fill-opacity="0.85"/>
  <rect x="0" y="170" width="320" height="10" fill="black" fill-opacity="0.3"/>
  <rect x="113" y="173" width="126" height="4" rx="2" fill="#fb7185" fill-opacity="0.75"/>
</svg>