<svg xmlns="http://www.w3.org/2000/svg" width="320" height="180" viewBox="0 0 320 180" preserveAspectRatio="xMidYMid slice">
  <defs>
    <linearGradient id="bg-15ie0" gradientTransform="rotate(169)">
      <stop offset="0%" stop-color="hsl(50 61% 8.2%)"/>
      <stop offset="100%" stop-color="hsl(32 47% 23.9%)"/>
    </linearGradient>
    <pattern id="pat-1pfzj" x="0" y="0" width="29" height="29" patternUnits="userSpaceOnUse">
  <line x1="14.5" y1="2" x2="14.5" y2="27" stroke="white" stroke-opacity="0.08" stroke-width="0.8"/>
  <line x1="2" y1="14.5" x2="27" y2="14.5" stroke="white" stroke-opacity="0.08" stroke-width="0.8"/>
</pattern>
  </defs>
  <rect width="320" height="180" fill="url(#bg-15ie0)"/>
  <rect width="320" height="180" fill="url(#pat-1pfzj)"/>
  <circle cx="119" cy="57" r="6" fill="none" stroke="white" stroke-opacity="0.25" stroke-width="0.8"/><g transform="translate(13 9)" stroke="white" stroke-opacity="0.45" stroke-linecap="round" stroke-width="1.2">
  <line x1="-4" y1="0" x2="4" y2="0"/><line x1="0" y1="-4" x2="0" y2="4"/>
</g><g transform="translate(83 79)" stroke="white" stroke-opacity="0.45" stroke-linecap="round" stroke-width="1.2">
  <line x1="-4" y1="0" x2="4" y2="0"/><line x1="0" y1="-4" x2="0" y2="4"/>
</g><circle cx="162" cy="35" r="6" fill="none" stroke="white" stroke-opacity="0.25" stroke-width="0.8"/><circle cx="285" cy="94" r="2" fill="#facc15" fill-opacity="0.7"/><g transform="translate(261 70)" stroke="white" stroke-opacity="0.45" stroke-linecap="round" stroke-width="1.2">
  <line x1="-4" y1="0" x2="4" y2="0"/><line x1="0" y1="-4" x2="0" y2="4"/>
</g>
  
  <polygon points="183.0,84.0 159.5,124.7 112.5,124.7 89.0,84.0 112.5,43.3 159.5,43.3" fill="white" fill-opacity="0.07" stroke="white" stroke-opacity="0.25" stroke-width="1.4"/>
  <circle cx="136" cy="84" r="29" fill="#facc15" fill-opacity="0.5"/>
  <circle cx="136" cy="84" r="13" fill="white" fill-opacity="0.85"/>
  <rect x="0" y="170" width="320" height="10" fill="black" fill-opacity="0.3"/>
  <rect x="98" y="173" width="95" height="4" rx="2" fill="#facc15" fill-opacity="0.75"/>
</svg>