<svg xmlns="http://www.w3.org/2000/svg" width="320" height="180" viewBox="0 0 320 180" preserveAspectRatio="xMidYMid slice">
  <defs>
    <linearGradient id="bg-ftb16" gradientTransform="rotate(159)">
      <stop offset="0%" stop-color="hsl(355 79% 11.0%)"/>
      <stop offset="100%" stop-color="hsl(17 52% 18.8%)"/>
    </linearGradient>
    <pattern id="pat-hhckg" x="0" y="0" width="20" height="20" patternUnits="userSpaceOnUse">
  <circle cx="10" cy="10" r="6.666666666666667" fill="none" stroke="white" stroke-opacity="0.08" stroke-width="0.8"/>
</pattern>
  </defs>
  <rect width="320" height="180" fill="url(#bg-ftb16)"/>
  <rect width="320" height="180" fill="url(#pat-hhckg)"/>
  <g transform="translate(298 129)" stroke="#fbbf24" stroke-opacity="0.55" stroke-linecap="round" stroke-width="1.4">
  <line x1="-3" y1="0" x2="3" y2="0"/><line x1="0" y1="-3" x2="0" y2="3"/>
</g><g transform="translate(232 46)" stroke="#fbbf24" stroke-opacity="0.55" stroke-linecap="round" stroke-width="1.4">
  <line x1="-3" y1="0" x2="3" y2="0"/><line x1="0" y1="-3" x2="0" y2="3"/>
</g><g transform="translate(296 54)" stroke="white" stroke-opacity="0.45" stroke-linecap="round" stroke-width="1.2">
  <line x1="-4" y1="0" x2="4" y2="0"/><line x1="0" y1="-4" x2="0" y2="4"/>
</g>
  
  <circle cx="189" cy="101" r="48" fill="white" fill-opacity="0.07" stroke="white" stroke-opacity="0.25" stroke-width="1.4"/>
  <circle cx="189" cy="101" r="27" fill="#fbbf24" fill-opacity="0.55"/>
  <circle cx="189" cy="101" r="16" fill="white" fill-opacity="0.85"/>
  <rect x="0" y="170" width="320" height="10" fill="black" fill-opacity="0.3"/>
  <rect x="118" y="173" width="109" height="4" rx="2" fill="#fbbf24" fill-opacity="0.75"/>
</svg>