<svg xmlns="http://www.w3.org/2000/svg" width="320" height="180" viewBox="0 0 320 180" preserveAspectRatio="xMidYMid slice">
  <defs>
    <linearGradient id="bg-shnmz" gradientTransform="rotate(129)">
      <stop offset="0%" stop-color="hsl(270 65% 11.0%)"/>
      <stop offset="100%" stop-color="hsl(211 45% 23.2%)"/>
    </linearGradient>
    <pattern id="pat-ud2ug" x="0" y="0" width="30" height="30" patternUnits="userSpaceOnUse">
  <polygon points="15,2 28,15 15,28 2,15" fill="none" stroke="white" stroke-opacity="0.09" stroke-width="0.8"/>
</pattern>
  </defs>
  <rect width="320" height="180" fill="url(#bg-shnmz)"/>
  <rect width="320" height="180" fill="url(#pat-ud2ug)"/>
  <g transform="translate(240 118)" stroke="white" stroke-opacity="0.45" stroke-linecap="round" stroke-width="1.2">
  <line x1="-4" y1="0" x2="4" y2="0"/><line x1="0" y1="-4" x2="0" y2="4"/>
</g><g transform="translate(272 142)" stroke="#a78bfa" stroke-opacity="0.55" stroke-linecap="round" stroke-width="1.4">
  <line x1="-3" y1="0" x2="3" y2="0"/><line x1="0" y1="-3" x2="0" y2="3"/>
</g><circle cx="241" cy="94" r="2" fill="#a78bfa" fill-opacity="0.7"/><circle cx="64" cy="140" r="8" fill="none" stroke="white" stroke-opacity="0.25" stroke-width="0.8"/><g transform="translate(193 109)" stroke="white" stroke-opacity="0.45" stroke-linecap="round" stroke-width="1.2">
  <line x1="-4" y1="0" x2="4" y2="0"/><line x1="0" y1="-4" x2="0" y2="4"/>
</g>
  
  <polygon points="207.0,99.0 184.5,138.0 139.5,138.0 117.0,99.0 139.5,60.0 184.5,60.0" fill="white" fill-opacity="0.07" stroke="white" stroke-opacity="0.25" stroke-width="1.4"/>
  <circle cx="162" cy="99" r="27" fill="#a78bfa" fill-opacity="0.5"/>
  <circle cx="162" cy="99" r="14" fill="white" fill-opacity="0.85"/>
  <rect x="0" y="170" width="320" height="10" fill="black" fill-opacity="0.3"/>
  <rect x="93" y="173" width="60" height="4" rx="2" fill="#a78bfa" fill-opacity="0.75"/>
</svg>