<svg xmlns="http://www.w3.org/2000/svg" width="320" height="180" viewBox="0 0 320 180" preserveAspectRatio="xMidYMid slice">
  <defs>
    <linearGradient id="bg-brsy0" gradientTransform="rotate(138)">
      <stop offset="0%" stop-color="hsl(279 72% 10.5%)"/>
      <stop offset="100%" stop-color="hsl(220 58% 23.2%)"/>
    </linearGradient>
    <pattern id="pat-cugfm" x="0" y="0" width="34" height="34" patternUnits="userSpaceOnUse">
  <polygon points="17,2 32,17 17,32 2,17" fill="none" stroke="white" stroke-opacity="0.15" stroke-width="0.8"/>
</pattern>
  </defs>
  <rect width="320" height="180" fill="url(#bg-brsy0)"/>
  <rect width="320" height="180" fill="url(#pat-cugfm)"/>
  <circle cx="109" cy="31" r="2" fill="#a78bfa" fill-opacity="0.7"/><g transform="translate(119 134)" stroke="#a78bfa" stroke-opacity="0.55" stroke-linecap="round" stroke-width="1.4">
  <line x1="-3" y1="0" x2="3" y2="0"/><line x1="0" y1="-3" x2="0" y2="3"/>
</g><g transform="translate(56 86)" stroke="white" stroke-opacity="0.45" stroke-linecap="round" stroke-width="1.2">
  <line x1="-4" y1="0" x2="4" y2="0"/><line x1="0" y1="-4" x2="0" y2="4"/>
</g><circle cx="156" cy="60" r="2" fill="#a78bfa" fill-opacity="0.7"/><g transform="translate(141 90)" stroke="white" stroke-opacity="0.45" stroke-linecap="round" stroke-width="1.2">
  <line x1="-4" y1="0" x2="4" y2="0"/><line x1="0" y1="-4" x2="0" y2="4"/>
</g><circle cx="230" cy="76" r="2" fill="#a78bfa" fill-opacity="0.7"/>
  
  <polygon points="233.0,72.0 213.0,106.6 173.0,106.6 153.0,72.0 173.0,37.4 213.0,37.4" fill="white" fill-opacity="0.07" stroke="white" stroke-opacity="0.25" stroke-width="1.4"/>
  <circle cx="193" cy="72" r="26" fill="#a78bfa" fill-opacity="0.5"/>
  <circle cx="193" cy="72" r="15" fill="white" fill-opacity="0.85"/>
  <rect x="0" y="170" width="320" height="10" fill="black" fill-opacity="0.3"/>
  <rect x="129" y="173" width="100" height="4" rx="2" fill="#a78bfa" fill-opacity="0.75"/>
</svg>