<svg xmlns="http://www.w3.org/2000/svg" width="320" height="180" viewBox="0 0 320 180" preserveAspectRatio="xMidYMid slice">
  <defs>
    <linearGradient id="bg-ie3lg" gradientTransform="rotate(127)">
      <stop offset="0%" stop-color="hsl(277 80% 13.6%)"/>
      <stop offset="100%" stop-color="hsl(211 66% 14.6%)"/>
    </linearGradient>
    <pattern id="pat-3vv71" x="0" y="0" width="24" height="24" patternUnits="userSpaceOnUse">
  <circle cx="12" cy="12" r="8" fill="none" stroke="white" stroke-opacity="0.14" stroke-width="0.8"/>
</pattern>
  </defs>
  <rect width="320" height="180" fill="url(#bg-ie3lg)"/>
  <rect width="320" height="180" fill="url(#pat-3vv71)"/>
  <circle cx="42" cy="78" r="2" fill="#a78bfa" fill-opacity="0.7"/><g transform="translate(28 8)" stroke="#a78bfa" stroke-opacity="0.55" stroke-linecap="round" stroke-width="1.4">
  <line x1="-3" y1="0" x2="3" y2="0"/><line x1="0" y1="-3" x2="0" y2="3"/>
</g><g transform="translate(289 155)" stroke="white" stroke-opacity="0.45" stroke-linecap="round" stroke-width="1.2">
  <line x1="-4" y1="0" x2="4" y2="0"/><line x1="0" y1="-4" x2="0" y2="4"/>
</g><g transform="translate(125 132)" stroke="white" stroke-opacity="0.45" stroke-linecap="round" stroke-width="1.2">
  <line x1="-4" y1="0" x2="4" y2="0"/><line x1="0" y1="-4" x2="0" y2="4"/>
</g>
  
  <polygon points="211.0,104.0 188.5,143.0 143.5,143.0 121.0,104.0 143.5,65.0 188.5,65.0" fill="white" fill-opacity="0.07" stroke="white" stroke-opacity="0.25" stroke-width="1.4"/>
  <circle cx="166" cy="104" r="28" fill="#a78bfa" fill-opacity="0.5"/>
  <circle cx="166" cy="104" r="14" fill="white" fill-opacity="0.85"/>
  <rect x="0" y="170" width="320" height="10" fill="black" fill-opacity="0.3"/>
  <rect x="95" y="173" width="96" height="4" rx="2" fill="#a78bfa" fill-opacity="0.75"/>
</svg>