<svg xmlns="http://www.w3.org/2000/svg" width="320" height="180" viewBox="0 0 320 180" preserveAspectRatio="xMidYMid slice">
  <defs>
    <linearGradient id="bg-1od4e" gradientTransform="rotate(142)">
      <stop offset="0%" stop-color="hsl(278 69% 12.6%)"/>
      <stop offset="100%" stop-color="hsl(217 55% 23.9%)"/>
    </linearGradient>
    <pattern id="pat-1rmqn" x="0" y="0" width="19" height="19" patternUnits="userSpaceOnUse">
  <polygon points="9.5,2 17,9.5 9.5,17 2,9.5" fill="none" stroke="white" stroke-opacity="0.06" stroke-width="0.8"/>
</pattern>
  </defs>
  <rect width="320" height="180" fill="url(#bg-1od4e)"/>
  <rect width="320" height="180" fill="url(#pat-1rmqn)"/>
  <g transform="translate(40 25)" stroke="#a78bfa" stroke-opacity="0.55" stroke-linecap="round" stroke-width="1.4">
  <line x1="-3" y1="0" x2="3" y2="0"/><line x1="0" y1="-3" x2="0" y2="3"/>
</g><g transform="translate(283 87)" stroke="#a78bfa" stroke-opacity="0.55" stroke-linecap="round" stroke-width="1.4">
  <line x1="-3" y1="0" x2="3" y2="0"/><line x1="0" y1="-3" x2="0" y2="3"/>
</g><circle cx="29" cy="50" r="2" fill="#a78bfa" fill-opacity="0.7"/><g transform="translate(66 36)" stroke="white" stroke-opacity="0.45" stroke-linecap="round" stroke-width="1.2">
  <line x1="-4" y1="0" x2="4" y2="0"/><line x1="0" y1="-4" x2="0" y2="4"/>
</g><circle cx="102" cy="39" r="2" fill="#a78bfa" fill-opacity="0.7"/>
  
  <polygon points="231.0,83.0 207.5,123.7 160.5,123.7 137.0,83.0 160.5,42.3 207.5,42.3" fill="white" fill-opacity="0.07" stroke="white" stroke-opacity="0.25" stroke-width="1.4"/>
  <circle cx="184" cy="83" r="31" fill="#a78bfa" fill-opacity="0.5"/>
  <circle cx="184" cy="83" r="17" fill="white" fill-opacity="0.85"/>
  <rect x="0" y="170" width="320" height="10" fill="black" fill-opacity="0.3"/>
  <rect x="121" y="173" width="114" height="4" rx="2" fill="#a78bfa" fill-opacity="0.75"/>
</svg>