<svg xmlns="http://www.w3.org/2000/svg" width="320" height="180" viewBox="0 0 320 180" preserveAspectRatio="xMidYMid slice">
  <defs>
    <linearGradient id="bg-5lsel" gradientTransform="rotate(156)">
      <stop offset="0%" stop-color="hsl(24 63% 9.4%)"/>
      <stop offset="100%" stop-color="hsl(21 66% 19.4%)"/>
    </linearGradient>
    <pattern id="pat-11yjn" x="0" y="0" width="22" height="22" patternUnits="userSpaceOnUse">
  <circle cx="11" cy="11" r="1.35" fill="white" fill-opacity="0.15"/>
</pattern>
  </defs>
  <rect width="320" height="180" fill="url(#bg-5lsel)"/>
  <rect width="320" height="180" fill="url(#pat-11yjn)"/>
  <g transform="translate(162 25)" stroke="white" stroke-opacity="0.45" stroke-linecap="round" stroke-width="1.2">
  <line x1="-4" y1="0" x2="4" y2="0"/><line x1="0" y1="-4" x2="0" y2="4"/>
</g><g transform="translate(214 7)" stroke="#fb923c" stroke-opacity="0.55" stroke-linecap="round" stroke-width="1.4">
  <line x1="-3" y1="0" x2="3" y2="0"/><line x1="0" y1="-3" x2="0" y2="3"/>
</g><circle cx="189" cy="143" r="2" fill="#fb923c" fill-opacity="0.7"/><circle cx="230" cy="10" r="9" fill="none" stroke="white" stroke-opacity="0.25" stroke-width="0.8"/><g transform="translate(74 74)" stroke="white" stroke-opacity="0.45" stroke-linecap="round" stroke-width="1.2">
  <line x1="-4" y1="0" x2="4" y2="0"/><line x1="0" y1="-4" x2="0" y2="4"/>
</g>
  
  <rect x="108" y="56" width="82" height="82" rx="7.38" fill="white" fill-opacity="0.07" stroke="white" stroke-opacity="0.25" stroke-width="1.4"/>
  <circle cx="149" cy="97" r="28" fill="#fb923c" fill-opacity="0.5"/>
  <circle cx="149" cy="97" r="12" fill="white" fill-opacity="0.85"/>
  <rect x="0" y="170" width="320" height="10" fill="black" fill-opacity="0.3"/>
  <rect x="121" y="173" width="133" height="4" rx="2" fill="#fb923c" fill-opacity="0.75"/>
</svg>