<svg xmlns="http://www.w3.org/2000/svg" width="320" height="180" viewBox="0 0 320 180" preserveAspectRatio="xMidYMid slice">
  <defs>
    <linearGradient id="bg-1maus" gradientTransform="rotate(118)">
      <stop offset="0%" stop-color="hsl(53 61% 11.6%)"/>
      <stop offset="100%" stop-color="hsl(24 75% 23.3%)"/>
    </linearGradient>
    <pattern id="pat-4d140" x="0" y="0" width="23" height="23" patternUnits="userSpaceOnUse">
  <circle cx="11.5" cy="11.5" r="0.82" fill="white" fill-opacity="0.06"/>
</pattern>
  </defs>
  <rect width="320" height="180" fill="url(#bg-1maus)"/>
  <rect width="320" height="180" fill="url(#pat-4d140)"/>
  <g transform="translate(181 132)" stroke="white" stroke-opacity="0.45" stroke-linecap="round" stroke-width="1.2">
  <line x1="-4" y1="0" x2="4" y2="0"/><line x1="0" y1="-4" x2="0" y2="4"/>
</g><circle cx="275" cy="119" r="2" fill="#facc15" fill-opacity="0.7"/><circle cx="131" cy="47" r="6" fill="none" stroke="white" stroke-opacity="0.25" stroke-width="0.8"/><circle cx="79" cy="11" r="2" fill="#facc15" fill-opacity="0.7"/><g transform="translate(193 143)" stroke="white" stroke-opacity="0.45" stroke-linecap="round" stroke-width="1.2">
  <line x1="-4" y1="0" x2="4" y2="0"/><line x1="0" y1="-4" x2="0" y2="4"/>
</g>
  
  <polygon points="215.0,103.0 190.0,146.3 140.0,146.3 115.0,103.0 140.0,59.7 190.0,59.7" fill="white" fill-opacity="0.07" stroke="white" stroke-opacity="0.25" stroke-width="1.4"/>
  <circle cx="165" cy="103" r="34" fill="#facc15" fill-opacity="0.5"/>
  <circle cx="165" cy="103" r="15" fill="white" fill-opacity="0.85"/>
  <rect x="0" y="170" width="320" height="10" fill="black" fill-opacity="0.3"/>
  <rect x="125" y="173" width="67" height="4" rx="2" fill="#facc15" fill-opacity="0.75"/>
</svg>