<svg xmlns="http://www.w3.org/2000/svg" width="320" height="180" viewBox="0 0 320 180" preserveAspectRatio="xMidYMid slice">
  <defs>
    <linearGradient id="bg-17yj6" gradientTransform="rotate(147)">
      <stop offset="0%" stop-color="hsl(45 63% 12.0%)"/>
      <stop offset="100%" stop-color="hsl(22 62% 14.9%)"/>
    </linearGradient>
    <pattern id="pat-4b9m7" x="0" y="0" width="35" height="35" patternUnits="userSpaceOnUse">
  <circle cx="17.5" cy="17.5" r="1.19" fill="white" fill-opacity="0.08"/>
</pattern>
  </defs>
  <rect width="320" height="180" fill="url(#bg-17yj6)"/>
  <rect width="320" height="180" fill="url(#pat-4b9m7)"/>
  <g transform="translate(253 17)" stroke="#fde68a" stroke-opacity="0.55" stroke-linecap="round" stroke-width="1.4">
  <line x1="-3" y1="0" x2="3" y2="0"/><line x1="0" y1="-3" x2="0" y2="3"/>
</g><g transform="translate(226 74)" stroke="white" stroke-opacity="0.45" stroke-linecap="round" stroke-width="1.2">
  <line x1="-4" y1="0" x2="4" y2="0"/><line x1="0" y1="-4" x2="0" y2="4"/>
</g><g transform="translate(42 35)" stroke="white" stroke-opacity="0.45" stroke-linecap="round" stroke-width="1.2">
  <line x1="-4" y1="0" x2="4" y2="0"/><line x1="0" y1="-4" x2="0" y2="4"/>
</g><circle cx="148" cy="108" r="8" fill="none" stroke="white" stroke-opacity="0.25" stroke-width="0.8"/><circle cx="264" cy="39" r="2" fill="#fde68a" fill-opacity="0.7"/>
  
  <circle cx="154" cy="87" r="50" fill="white" fill-opacity="0.07" stroke="white" stroke-opacity="0.25" stroke-width="1.4"/>
  <circle cx="154" cy="87" r="33" fill="#fde68a" fill-opacity="0.55"/>
  <circle cx="154" cy="87" r="19" fill="white" fill-opacity="0.85"/>
  <rect x="0" y="170" width="320" height="10" fill="black" fill-opacity="0.3"/>
  <rect x="138" y="173" width="97" height="4" rx="2" fill="#fde68a" fill-opacity="0.75"/>
</svg>