<svg xmlns="http://www.w3.org/2000/svg" width="320" height="180" viewBox="0 0 320 180" preserveAspectRatio="xMidYMid slice">
  <defs>
    <linearGradient id="bg-ciiel" gradientTransform="rotate(149)">
      <stop offset="0%" stop-color="hsl(240 67% 12.9%)"/>
      <stop offset="100%" stop-color="hsl(285 60% 20.0%)"/>
    </linearGradient>
    <pattern id="pat-10v8x" x="0" y="0" width="33" height="33" patternUnits="userSpaceOnUse">
  <line x1="16.5" y1="2" x2="16.5" y2="31" stroke="white" stroke-opacity="0.12" stroke-width="0.8"/>
  <line x1="2" y1="16.5" x2="31" y2="16.5" stroke="white" stroke-opacity="0.12" stroke-width="0.8"/>
</pattern>
  </defs>
  <rect width="320" height="180" fill="url(#bg-ciiel)"/>
  <rect width="320" height="180" fill="url(#pat-10v8x)"/>
  <g transform="translate(208 139)" stroke="white" stroke-opacity="0.45" stroke-linecap="round" stroke-width="1.2">
  <line x1="-4" y1="0" x2="4" y2="0"/><line x1="0" y1="-4" x2="0" y2="4"/>
</g><g transform="translate(17 79)" stroke="#60a5fa" stroke-opacity="0.55" stroke-linecap="round" stroke-width="1.4">
  <line x1="-3" y1="0" x2="3" y2="0"/><line x1="0" y1="-3" x2="0" y2="3"/>
</g><circle cx="90" cy="37" r="2" fill="#60a5fa" fill-opacity="0.7"/>
  
  <rect x="102" y="46" width="100" height="100" rx="9" fill="white" fill-opacity="0.07" stroke="white" stroke-opacity="0.25" stroke-width="1.4"/>
  <circle cx="152" cy="96" r="34" fill="#60a5fa" fill-opacity="0.5"/>
  <circle cx="152" cy="96" r="20" fill="white" fill-opacity="0.85"/>
  <rect x="0" y="170" width="320" height="10" fill="black" fill-opacity="0.3"/>
  <rect x="122" y="173" width="79" height="4" rx="2" fill="#60a5fa" fill-opacity="0.75"/>
</svg>