<svg xmlns="http://www.w3.org/2000/svg" width="320" height="180" viewBox="0 0 320 180" preserveAspectRatio="xMidYMid slice">
  <defs>
    <linearGradient id="bg-4i1vy" gradientTransform="rotate(150)">
      <stop offset="0%" stop-color="hsl(260 67% 11.9%)"/>
      <stop offset="100%" stop-color="hsl(225 67% 23.1%)"/>
    </linearGradient>
    <pattern id="pat-jikqh" x="0" y="0" width="35" height="35" patternUnits="userSpaceOnUse">
  <circle cx="17.5" cy="17.5" r="1.47" fill="white" fill-opacity="0.13"/>
</pattern>
  </defs>
  <rect width="320" height="180" fill="url(#bg-4i1vy)"/>
  <rect width="320" height="180" fill="url(#pat-jikqh)"/>
  <circle cx="290" cy="80" r="5" fill="none" stroke="white" stroke-opacity="0.25" stroke-width="0.8"/><circle cx="148" cy="147" r="2" fill="#a78bfa" fill-opacity="0.7"/><g transform="translate(151 124)" stroke="#a78bfa" stroke-opacity="0.55" stroke-linecap="round" stroke-width="1.4">
  <line x1="-3" y1="0" x2="3" y2="0"/><line x1="0" y1="-3" x2="0" y2="3"/>
</g><circle cx="221" cy="58" r="8" fill="none" stroke="white" stroke-opacity="0.25" stroke-width="0.8"/><circle cx="305" cy="69" r="2" fill="#a78bfa" fill-opacity="0.7"/>
  
  <polygon points="217.0,105.0 195.5,142.2 152.5,142.2 131.0,105.0 152.5,67.8 195.5,67.8" fill="white" fill-opacity="0.07" stroke="white" stroke-opacity="0.25" stroke-width="1.4"/>
  <circle cx="174" cy="105" r="25" fill="#a78bfa" fill-opacity="0.5"/>
  <circle cx="174" cy="105" r="16" fill="white" fill-opacity="0.85"/>
  <rect x="0" y="170" width="320" height="10" fill="black" fill-opacity="0.3"/>
  <rect x="92" y="173" width="83" height="4" rx="2" fill="#a78bfa" fill-opacity="0.75"/>
</svg>